<svg xmlns="http://www.w3.org/2000/svg" xmlns:xlink="http://www.w3.org/1999/xlink" width="2000" zoomAndPan="magnify" viewBox="0 0 1500 1499.999933" height="2000" preserveAspectRatio="xMidYMid meet" version="1.0"><defs><g/><clipPath id="cd35963b8a"><path d="M 0.558594 809 L 1445.121094 809 L 1445.121094 961 L 0.558594 961 Z M 0.558594 809 " clip-rule="nonzero"/></clipPath><clipPath id="1ea2f44c0f"><rect x="0" width="1446" y="0" height="152"/></clipPath><clipPath id="256daa4740"><path d="M 483 982 L 988 982 L 988 1034.121094 L 483 1034.121094 Z M 483 982 " clip-rule="nonzero"/></clipPath><clipPath id="633e7ccf31"><rect x="0" width="505" y="0" height="53"/></clipPath><clipPath id="581853b10e"><rect x="0" width="1446" y="0" height="1035"/></clipPath></defs><g transform="matrix(1, 0, 0, 1, 28, 241)"><g clip-path="url(#581853b10e)"><g clip-path="url(#cd35963b8a)"><g transform="matrix(1, 0, 0, 1, 0, 809)"><g clip-path="url(#1ea2f44c0f)"><g fill="#ffffff" fill-opacity="1"><g transform="translate(7.325834, 121.068009)"><g><path d="M 83.0625 0 L 78.3125 -15.34375 L 43.03125 -15.34375 L 38.125 0 L -1.578125 0 L 42.5625 -110.75 L 79.578125 -110.75 L 124.03125 0 Z M 71.515625 -41.140625 L 60.75 -71.671875 L 50 -41.140625 Z M 71.515625 -41.140625 "/></g></g></g><g fill="#ffffff" fill-opacity="1"><g transform="translate(135.591819, 121.068009)"><g><path d="M 50.3125 3.171875 C 35.757812 3.171875 24.394531 -0.203125 16.21875 -6.953125 C 8.039062 -13.710938 3.953125 -23.101562 3.953125 -35.125 L 42.71875 -35.125 C 42.71875 -32.695312 43.398438 -30.796875 44.765625 -29.421875 C 46.140625 -28.054688 47.988281 -27.375 50.3125 -27.375 C 52.414062 -27.375 54.125 -27.898438 55.4375 -28.953125 C 56.757812 -30.003906 57.421875 -31.535156 57.421875 -33.546875 C 57.421875 -36.492188 55.8125 -38.597656 52.59375 -39.859375 C 49.382812 -41.128906 45.457031 -42.34375 40.8125 -43.5 C 37.019531 -44.457031 33.066406 -45.59375 28.953125 -46.90625 C 24.835938 -48.226562 20.988281 -50.128906 17.40625 -52.609375 C 13.820312 -55.085938 10.921875 -58.40625 8.703125 -62.5625 C 6.484375 -66.726562 5.375 -72.132812 5.375 -78.78125 C 5.375 -89.75 9.25 -98.34375 17 -104.5625 C 24.757812 -110.789062 35.597656 -113.90625 49.515625 -113.90625 C 63.222656 -113.90625 73.898438 -110.710938 81.546875 -104.328125 C 89.203125 -97.953125 93.03125 -89.125 93.03125 -77.84375 L 55.6875 -77.84375 C 55.6875 -82.269531 53.628906 -84.484375 49.515625 -84.484375 C 45.503906 -84.484375 43.5 -82.796875 43.5 -79.421875 C 43.5 -76.785156 45.132812 -74.804688 48.40625 -73.484375 C 51.675781 -72.171875 55.632812 -70.878906 60.28125 -69.609375 C 64.175781 -68.554688 68.257812 -67.316406 72.53125 -65.890625 C 76.800781 -64.460938 80.78125 -62.507812 84.46875 -60.03125 C 88.164062 -57.5625 91.175781 -54.269531 93.5 -50.15625 C 95.820312 -46.039062 96.984375 -40.816406 96.984375 -34.484375 C 96.984375 -22.671875 92.867188 -13.441406 84.640625 -6.796875 C 76.410156 -0.148438 64.96875 3.171875 50.3125 3.171875 Z M 50.3125 3.171875 "/></g></g></g><g fill="#ffffff" fill-opacity="1"><g transform="translate(242.032439, 121.068009)"><g><path d="M 61.21875 -110.75 C 69.550781 -110.75 76.960938 -108.953125 83.453125 -105.359375 C 89.941406 -101.773438 95.03125 -96.84375 98.71875 -90.5625 C 102.40625 -84.289062 104.25 -77.039062 104.25 -68.8125 C 104.25 -60.59375 102.40625 -53.316406 98.71875 -46.984375 C 95.03125 -40.660156 89.941406 -35.675781 83.453125 -32.03125 C 76.960938 -28.394531 69.550781 -26.578125 61.21875 -26.578125 L 45.5625 -26.578125 L 45.5625 0 L 8.703125 0 L 8.703125 -110.75 Z M 54.109375 -56.953125 C 57.691406 -56.953125 60.5625 -58.03125 62.71875 -60.1875 C 64.882812 -62.351562 65.96875 -65.175781 65.96875 -68.65625 C 65.96875 -72.132812 64.882812 -74.957031 62.71875 -77.125 C 60.5625 -79.289062 57.691406 -80.375 54.109375 -80.375 L 45.5625 -80.375 L 45.5625 -56.953125 Z M 54.109375 -56.953125 "/></g></g></g><g fill="#ffffff" fill-opacity="1"><g transform="translate(354.166646, 121.068009)"><g><path d="M 8.703125 0 L 8.703125 -110.75 L 46.359375 -110.75 L 46.359375 0 Z M 8.703125 0 "/></g></g></g><g fill="#ffffff" fill-opacity="1"><g transform="translate(415.058568, 121.068009)"><g><path d="M 67.234375 0 L 53 -30.0625 L 45.40625 -30.0625 L 45.40625 0 L 8.703125 0 L 8.703125 -110.75 L 60.4375 -110.75 C 69.082031 -110.75 76.675781 -109.003906 83.21875 -105.515625 C 89.757812 -102.035156 94.898438 -97.128906 98.640625 -90.796875 C 102.378906 -84.472656 104.25 -77.144531 104.25 -68.8125 C 104.25 -62.382812 102.90625 -56.640625 100.21875 -51.578125 C 97.53125 -46.515625 93.757812 -42.242188 88.90625 -38.765625 L 108.21875 0 Z M 45.40625 -79.265625 L 45.40625 -58.21875 L 54.421875 -58.21875 C 58.109375 -58.21875 60.976562 -59.21875 63.03125 -61.21875 C 65.09375 -63.226562 66.125 -65.757812 66.125 -68.8125 C 66.125 -71.769531 65.09375 -74.25 63.03125 -76.25 C 60.976562 -78.257812 58.109375 -79.265625 54.421875 -79.265625 Z M 45.40625 -79.265625 "/></g></g></g><g fill="#ffffff" fill-opacity="1"><g transform="translate(530.513999, 121.068009)"><g><path d="M 45.09375 -29.75 L 85.265625 -29.75 L 85.265625 0 L 8.703125 0 L 8.703125 -110.75 L 84.484375 -110.75 L 84.484375 -81 L 45.09375 -81 L 45.09375 -68.984375 L 80.375 -68.984375 L 80.375 -41.765625 L 45.09375 -41.765625 Z M 45.09375 -29.75 "/></g></g></g><g fill="#ffffff" fill-opacity="1"><g transform="translate(627.465286, 121.068009)"><g/></g></g><g fill="#ffffff" fill-opacity="1"><g transform="translate(664.001347, 121.068009)"><g><path d="M 110.265625 0 L 78.15625 0 C 76.363281 -1.894531 74.570312 -3.738281 72.78125 -5.53125 C 68.132812 -2.789062 63.144531 -0.65625 57.8125 0.875 C 52.488281 2.40625 46.929688 3.171875 41.140625 3.171875 C 33.859375 3.171875 27.394531 1.722656 21.75 -1.171875 C 16.113281 -4.078125 11.6875 -8.035156 8.46875 -13.046875 C 5.25 -18.054688 3.640625 -23.832031 3.640625 -30.375 C 3.640625 -37.65625 5.585938 -43.71875 9.484375 -48.5625 C 13.390625 -53.414062 17.925781 -57.632812 23.09375 -61.21875 C 18.5625 -67.550781 15.582031 -72.691406 14.15625 -76.640625 C 12.738281 -80.597656 12.03125 -84.425781 12.03125 -88.125 C 12.03125 -94.976562 13.742188 -100.566406 17.171875 -104.890625 C 20.597656 -109.210938 25.050781 -112.375 30.53125 -114.375 C 36.019531 -116.382812 41.769531 -117.390625 47.78125 -117.390625 C 53.6875 -117.390625 59.351562 -116.332031 64.78125 -114.21875 C 70.21875 -112.113281 74.675781 -108.925781 78.15625 -104.65625 C 81.632812 -100.382812 83.375 -94.925781 83.375 -88.28125 C 83.375 -83.007812 82.289062 -78.394531 80.125 -74.4375 C 77.96875 -70.476562 75.203125 -66.96875 71.828125 -63.90625 C 68.453125 -60.851562 64.8125 -58.113281 60.90625 -55.6875 C 62.382812 -53.894531 63.96875 -52.046875 65.65625 -50.140625 C 67.34375 -48.242188 69.132812 -46.191406 71.03125 -43.984375 C 72.40625 -47.148438 73.195312 -50.207031 73.40625 -53.15625 L 101.40625 -53.15625 C 101.195312 -47.351562 100.171875 -41.84375 98.328125 -36.625 C 96.484375 -31.40625 93.925781 -26.582031 90.65625 -22.15625 C 93.601562 -18.78125 96.710938 -15.269531 99.984375 -11.625 C 103.253906 -7.988281 106.679688 -4.113281 110.265625 0 Z M 47.78125 -93.1875 C 46.09375 -93.1875 44.585938 -92.65625 43.265625 -91.59375 C 41.953125 -90.539062 41.296875 -88.851562 41.296875 -86.53125 C 41.296875 -83.476562 42.769531 -79.628906 45.71875 -74.984375 C 48.25 -76.671875 50.28125 -78.460938 51.8125 -80.359375 C 53.34375 -82.265625 54.109375 -84.320312 54.109375 -86.53125 C 54.109375 -88.75 53.421875 -90.410156 52.046875 -91.515625 C 50.679688 -92.628906 49.257812 -93.1875 47.78125 -93.1875 Z M 43.34375 -22.78125 C 46.71875 -22.78125 50.203125 -23.675781 53.796875 -25.46875 C 48.410156 -31.375 43.660156 -36.648438 39.546875 -41.296875 C 37.960938 -39.710938 36.722656 -38.128906 35.828125 -36.546875 C 34.929688 -34.960938 34.484375 -33.222656 34.484375 -31.328125 C 34.484375 -28.796875 35.273438 -26.738281 36.859375 -25.15625 C 38.441406 -23.570312 40.601562 -22.78125 43.34375 -22.78125 Z M 43.34375 -22.78125 "/></g></g></g><g fill="#ffffff" fill-opacity="1"><g transform="translate(777.40074, 121.068009)"><g/></g></g><g fill="#ffffff" fill-opacity="1"><g transform="translate(813.936801, 121.068009)"><g><path d="M 99.03125 -110.75 L 99.03125 -78.625 L 69.140625 -78.625 L 69.140625 0 L 32.109375 0 L 32.109375 -78.625 L 2.21875 -78.625 L 2.21875 -110.75 Z M 99.03125 -110.75 "/></g></g></g><g fill="#ffffff" fill-opacity="1"><g transform="translate(921.010013, 121.068009)"><g><path d="M 71.984375 -110.75 L 109.3125 -110.75 L 109.3125 0 L 71.984375 0 L 71.984375 -39.234375 L 46.03125 -39.234375 L 46.03125 0 L 8.703125 0 L 8.703125 -110.75 L 46.03125 -110.75 L 46.03125 -73.25 L 71.984375 -73.25 Z M 71.984375 -110.75 "/></g></g></g><g fill="#ffffff" fill-opacity="1"><g transform="translate(1044.847657, 121.068009)"><g><path d="M 67.234375 0 L 53 -30.0625 L 45.40625 -30.0625 L 45.40625 0 L 8.703125 0 L 8.703125 -110.75 L 60.4375 -110.75 C 69.082031 -110.75 76.675781 -109.003906 83.21875 -105.515625 C 89.757812 -102.035156 94.898438 -97.128906 98.640625 -90.796875 C 102.378906 -84.472656 104.25 -77.144531 104.25 -68.8125 C 104.25 -62.382812 102.90625 -56.640625 100.21875 -51.578125 C 97.53125 -46.515625 93.757812 -42.242188 88.90625 -38.765625 L 108.21875 0 Z M 45.40625 -79.265625 L 45.40625 -58.21875 L 54.421875 -58.21875 C 58.109375 -58.21875 60.976562 -59.21875 63.03125 -61.21875 C 65.09375 -63.226562 66.125 -65.757812 66.125 -68.8125 C 66.125 -71.769531 65.09375 -74.25 63.03125 -76.25 C 60.976562 -78.257812 58.109375 -79.265625 54.421875 -79.265625 Z M 45.40625 -79.265625 "/></g></g></g><g fill="#ffffff" fill-opacity="1"><g transform="translate(1160.303018, 121.068009)"><g><path d="M 8.703125 0 L 8.703125 -110.75 L 46.359375 -110.75 L 46.359375 0 Z M 8.703125 0 "/></g></g></g><g fill="#ffffff" fill-opacity="1"><g transform="translate(1221.19494, 121.068009)"><g><path d="M 76.578125 -110.75 L 119.765625 -110.75 L 76.09375 0 L 42.40625 0 L -1.265625 -110.75 L 41.921875 -110.75 L 59.328125 -52.046875 Z M 76.578125 -110.75 "/></g></g></g><g fill="#ffffff" fill-opacity="1"><g transform="translate(1345.507045, 121.068009)"><g><path d="M 45.09375 -29.75 L 85.265625 -29.75 L 85.265625 0 L 8.703125 0 L 8.703125 -110.75 L 84.484375 -110.75 L 84.484375 -81 L 45.09375 -81 L 45.09375 -68.984375 L 80.375 -68.984375 L 80.375 -41.765625 L 45.09375 -41.765625 Z M 45.09375 -29.75 "/></g></g></g></g></g></g><g clip-path="url(#256daa4740)"><g transform="matrix(1, 0, 0, 1, 483, 982)"><g clip-path="url(#633e7ccf31)"><g fill="#ffffff" fill-opacity="1"><g transform="translate(1.427817, 39.126229)"><g><path d="M 4.984375 0 L 4.984375 -36.390625 L 9.515625 -36.390625 L 9.515625 0 Z M 4.984375 0 "/></g></g></g><g fill="#ffffff" fill-opacity="1"><g transform="translate(40.36887, 39.126229)"><g><path d="M 29.53125 -36.390625 L 34 -36.390625 L 34 0 L 30.15625 0 L 9.40625 -28.390625 L 9.40625 0 L 4.984375 0 L 4.984375 -36.390625 L 9.09375 -36.390625 L 29.53125 -8.3125 Z M 29.53125 -36.390625 "/></g></g></g><g fill="#ffffff" fill-opacity="1"><g transform="translate(103.718013, 39.126229)"><g><path d="M 4.984375 0 L 4.984375 -36.390625 L 9.515625 -36.390625 L 9.515625 0 Z M 4.984375 0 "/></g></g></g><g fill="#ffffff" fill-opacity="1"><g transform="translate(142.659067, 39.126229)"><g><path d="M 27.8125 -36.390625 L 27.8125 -32.125 L 16.734375 -32.125 L 16.734375 0 L 12.171875 0 L 12.171875 -32.125 L 1.09375 -32.125 L 1.09375 -36.390625 Z M 27.8125 -36.390625 "/></g></g></g><g fill="#ffffff" fill-opacity="1"><g transform="translate(195.98528, 39.126229)"><g><path d="M 4.984375 0 L 4.984375 -36.390625 L 9.515625 -36.390625 L 9.515625 0 Z M 4.984375 0 "/></g></g></g><g fill="#ffffff" fill-opacity="1"><g transform="translate(234.926334, 39.126229)"><g><path d="M 30.40625 0 L 26.765625 -8.734375 L 9.3125 -8.734375 L 5.71875 0 L 0.890625 0 L 15.75 -36.390625 L 20.015625 -36.390625 L 35.34375 0 Z M 17.984375 -30.09375 L 11.015625 -12.890625 L 25.0625 -12.890625 Z M 17.984375 -30.09375 "/></g></g></g><g fill="#ffffff" fill-opacity="1"><g transform="translate(295.575007, 39.126229)"><g><path d="M 27.8125 -36.390625 L 27.8125 -32.125 L 16.734375 -32.125 L 16.734375 0 L 12.171875 0 L 12.171875 -32.125 L 1.09375 -32.125 L 1.09375 -36.390625 Z M 27.8125 -36.390625 "/></g></g></g><g fill="#ffffff" fill-opacity="1"><g transform="translate(348.90122, 39.126229)"><g><path d="M 4.984375 0 L 4.984375 -36.390625 L 9.515625 -36.390625 L 9.515625 0 Z M 4.984375 0 "/></g></g></g><g fill="#ffffff" fill-opacity="1"><g transform="translate(387.842274, 39.126229)"><g><path d="M 29.375 -36.390625 L 34.359375 -36.390625 L 19.859375 0 L 15.640625 0 L 0.9375 -36.390625 L 5.984375 -36.390625 L 17.78125 -6.859375 Z M 29.375 -36.390625 "/></g></g></g><g fill="#ffffff" fill-opacity="1"><g transform="translate(447.711933, 39.126229)"><g><path d="M 9.515625 -4.359375 L 26.140625 -4.359375 L 26.140625 0 L 4.984375 0 L 4.984375 -36.390625 L 25.578125 -36.390625 L 25.578125 -32.078125 L 9.515625 -32.078125 L 9.515625 -20.796875 L 24.21875 -20.796875 L 24.21875 -16.578125 L 9.515625 -16.578125 Z M 9.515625 -4.359375 "/></g></g></g></g></g></g><path fill="#d9d9d9" d="M 443.085938 83.75 C 472.363281 69.371094 507.289062 81.695312 521.160156 110.976562 C 535.027344 140.253906 522.699219 175.179688 493.9375 189.046875 C 464.660156 202.917969 429.730469 190.589844 415.863281 161.3125 C 401.996094 132.546875 413.808594 97.621094 443.085938 83.75 Z M 443.085938 83.75 " fill-opacity="1" fill-rule="evenodd"/><path fill="#ffffff" d="M 1024.527344 107.378906 C 1038.910156 136.65625 1026.582031 171.585938 997.304688 185.453125 C 968.027344 199.320312 933.097656 186.992188 919.230469 158.230469 C 905.363281 128.953125 917.691406 94.023438 946.96875 80.15625 C 975.730469 66.289062 1010.660156 78.101562 1024.527344 107.378906 Z M 1024.527344 107.378906 " fill-opacity="1" fill-rule="evenodd"/><path fill="#d9d9d9" d="M 1000.898438 688.820312 C 971.621094 703.203125 936.695312 690.875 922.824219 661.597656 C 908.957031 632.320312 921.285156 597.390625 950.050781 583.523438 C 979.328125 569.65625 1014.253906 581.984375 1028.121094 611.261719 C 1041.992188 640.023438 1030.175781 674.953125 1000.898438 688.820312 Z M 1000.898438 688.820312 " fill-opacity="1" fill-rule="evenodd"/><path fill="#ffffff" d="M 419.457031 665.191406 C 405.078125 635.914062 417.402344 600.988281 446.679688 587.121094 C 475.957031 573.25 510.886719 585.578125 524.753906 614.34375 C 538.621094 643.621094 526.296875 678.546875 497.019531 692.414062 C 468.253906 706.285156 433.328125 694.46875 419.457031 665.191406 Z M 419.457031 665.191406 " fill-opacity="1" fill-rule="evenodd"/><path fill="#d9d9d9" d="M 841.15625 31.359375 C 562.25 19.03125 517.5625 393.992188 376.828125 165.933594 C 395.316406 263.527344 487.773438 404.777344 619.777344 461.277344 C 560.195312 286.640625 691.175781 93.511719 841.15625 31.359375 Z M 841.15625 31.359375 " fill-opacity="1" fill-rule="evenodd"/><path fill="#ffffff" d="M 1076.917969 505.449219 C 1089.246094 226.542969 714.289062 181.855469 942.34375 41.121094 C 844.753906 59.609375 703.5 152.066406 647 284.070312 C 821.640625 224.488281 1014.769531 355.46875 1076.917969 505.449219 Z M 1076.917969 505.449219 " fill-opacity="1" fill-rule="evenodd"/><path fill="#d9d9d9" d="M 602.828125 741.210938 C 881.734375 753.539062 926.421875 378.582031 1067.160156 606.636719 C 1048.667969 509.046875 956.210938 367.792969 824.207031 311.292969 C 883.789062 485.933594 752.8125 679.0625 602.828125 741.210938 Z M 602.828125 741.210938 " fill-opacity="1" fill-rule="evenodd"/><path fill="#ffffff" d="M 367.066406 267.121094 C 354.738281 546.027344 729.695312 590.714844 501.640625 731.453125 C 599.234375 712.960938 740.484375 620.507812 797.496094 488.5 C 622.347656 548.082031 429.21875 417.105469 367.066406 267.121094 Z M 367.066406 267.121094 " fill-opacity="1" fill-rule="evenodd"/><path fill="#d9d9d9" d="M 717.882812 315.402344 C 756.921875 313.347656 790.308594 343.140625 792.875 382.175781 C 795.441406 421.214844 765.136719 454.601562 726.101562 457.167969 C 687.066406 459.222656 653.164062 429.433594 651.109375 390.394531 C 649.054688 350.84375 678.847656 317.457031 717.882812 315.402344 Z M 717.882812 315.402344 " fill-opacity="1" fill-rule="evenodd"/><path fill="#d9d9d9" d="M 717.882812 315.402344 C 756.921875 313.347656 790.308594 343.140625 792.875 382.175781 C 795.441406 421.214844 765.136719 454.601562 726.101562 457.167969 C 687.066406 459.222656 653.164062 429.433594 651.109375 390.394531 C 649.054688 350.84375 678.847656 317.457031 717.882812 315.402344 Z M 717.882812 315.402344 " fill-opacity="1" fill-rule="evenodd"/><path fill="#d9d9d9" d="M 541.191406 50.363281 C 531.433594 56.527344 528.863281 69.371094 534.515625 79.128906 C 537.59375 84.777344 542.730469 88.886719 549.410156 90.429688 C 550.949219 90.941406 552.492188 90.941406 554.03125 90.941406 C 558.65625 90.941406 563.277344 89.402344 567.386719 86.832031 C 642.378906 30.847656 749.214844 5.164062 815.988281 8.761719 C 815.476562 8.246094 660.871094 -24.625 541.191406 50.363281 Z M 541.191406 50.363281 " fill-opacity="1" fill-rule="nonzero"/><path fill="#ffffff" d="M 1057.914062 205.484375 C 1051.75 195.726562 1038.910156 193.15625 1029.148438 198.808594 C 1023.5 201.890625 1019.390625 207.023438 1017.847656 213.703125 C 1017.335938 215.242188 1017.335938 216.785156 1017.335938 218.324219 C 1017.335938 222.949219 1018.875 227.570312 1021.445312 231.679688 C 1077.433594 306.671875 1103.113281 413.507812 1099.519531 480.28125 C 1100.03125 479.769531 1132.90625 325.164062 1057.914062 205.484375 Z M 1057.914062 205.484375 " fill-opacity="1" fill-rule="nonzero"/><path fill="#d9d9d9" d="M 902.792969 722.207031 C 912.554688 716.042969 915.121094 703.203125 909.472656 693.441406 C 906.390625 687.792969 901.253906 683.683594 894.574219 682.144531 C 893.035156 681.628906 891.492188 681.628906 889.953125 681.628906 C 885.332031 681.628906 880.707031 683.171875 876.597656 685.738281 C 801.605469 741.726562 694.769531 767.40625 627.996094 763.8125 C 628.511719 764.324219 783.117188 797.199219 902.792969 722.207031 Z M 902.792969 722.207031 " fill-opacity="1" fill-rule="nonzero"/><path fill="#ffffff" d="M 386.070312 567.085938 C 392.234375 576.847656 405.078125 579.414062 414.835938 573.765625 C 420.484375 570.683594 424.59375 565.546875 426.136719 558.867188 C 426.648438 557.328125 426.648438 555.789062 426.648438 554.246094 C 426.648438 549.625 425.109375 545 422.539062 540.890625 C 366.554688 465.898438 340.871094 359.0625 344.46875 292.289062 C 343.953125 292.804688 311.082031 447.410156 386.070312 567.085938 Z M 386.070312 567.085938 " fill-opacity="1" fill-rule="nonzero"/></g></g></svg>